<!-- assets/illustrations/hero-illustration.svg -->
<svg viewBox="0 0 200 200" xmlns="http://www.w3.org/2000/svg">
  <g transform="translate(100 100)">
    <path d="M62.7,-34.6C75.8,-11.1,77.2,19.3,64.4,42.5C51.6,65.7,25.8,81.7,1.2,81.1C-23.4,80.5,-46.8,63.3,-59.8,42C-72.8,20.7,-75.4,-4.7,-66.2,-27.2C-57,-49.7,-36,-69.3,-14.2,-73.2C7.6,-77.1,15.2,-64.4,30.9,-51.9C46.6,-39.3,60.4,-26.8,62.7,-34.6Z" fill="#E8F5E9" transform="scale(1.1)"/>
    <rect x="-45" y="-35" width="90" height="60" rx="5" ry="5" fill="#FFFFFF" stroke="#4CAF4F" stroke-width="2"/>
    <path d="M -35 -15 L -15 5 L 5 -10 L 20 10 L 35 -5" fill="none" stroke="#4CAF4F" stroke-width="2"/>
    <circle cx="-28" cy="-22" r="3" fill="#4CAF4F"/>
    <path d="M -45 35 h 25 v 15 h -25 z" fill="#4CAF4F" opacity="0.8"/>
    <path d="M -15 35 h 25 v 15 h -25 z" fill="#4CAF4F" opacity="0.6"/>
    <path d="M 15 35 h 25 v 15 h -25 z" fill="#4CAF4F" opacity="0.4"/>
  </g>
</svg>