<!-- assets/images/logo.svg -->
<svg width="154" height="40" viewBox="0 0 154 40" fill="none" xmlns="http://www.w3.org/2000/svg">
<path d="M24.9668 26.23L22.1868 29.74C21.7368 30.31 20.9268 30.43 20.3568 29.98L17.8068 27.94C17.2368 27.49 17.1168 26.68 17.5668 26.11L20.3468 22.6C20.7968 22.03 21.6068 21.91 22.1768 22.36L24.7268 24.4C25.2968 24.85 25.4168 25.66 24.9668 26.23Z" fill="#4CAF4F"/>
<path d="M14.6068 23.63L11.8268 20.12C11.3768 19.55 10.5668 19.43 9.99678 19.88L7.44678 21.92C6.87678 22.37 6.75678 23.18 7.20678 23.75L9.98678 27.26C10.4368 27.83 11.2468 27.95 11.8168 27.5L14.3668 25.46C14.9368 25.01 15.0568 24.2 14.6068 23.63Z" fill="#4CAF4F"/>
<path d="M14.7771 14.04L17.2871 11.63C17.8271 11.11 18.6871 11.11 19.2271 11.63L21.3571 13.67C21.8971 14.19 21.8971 15.05 21.3571 15.57L18.8471 17.98C18.3071 18.5 17.4471 18.5 16.9071 17.98L14.7771 16.04C14.2371 15.52 14.2371 14.56 14.7771 14.04Z" fill="#4CAF4F"/>
<path d="M2.99291 14.04L5.50291 11.63C6.04291 11.11 6.90291 11.11 7.44291 11.63L9.57291 13.67C10.1129 14.19 10.1129 15.05 9.57291 15.57L7.06291 17.98C6.52291 18.5 5.66291 18.5 5.12291 17.98L2.99291 16.04C2.45291 15.52 2.45291 14.56 2.99291 14.04Z" fill="#4CAF4F"/>
<path d="M36.6749 28V11.32H39.1849V25.73H48.0949V28H36.6749Z" fill="#263238"/>
<path d="M54.5683 28V11.32H63.6383V13.59H57.0783V18.61H63.0483V20.86H57.0783V28H54.5683Z" fill="#263238"/>
<path d="M66.3621 28V11.32H75.4321V13.59H68.8721V18.61H74.8421V20.86H68.8721V28H66.3621Z" fill="#263238"/>
<path d="M89.3725 28H86.6725L81.0825 11.32H84.0025L88.0225 24.33L92.0425 11.32H94.9625L89.3725 28Z" fill="#263238"/>
<path d="M99.6387 18.9C99.6387 17.89 99.8687 16.98 100.329 16.17C100.789 15.36 101.429 14.7 102.249 14.19C103.069 13.68 103.989 13.43 105.009 13.43C106.029 13.43 106.949 13.68 107.769 14.19C108.589 14.7 109.229 15.36 109.689 16.17C110.149 16.98 110.379 17.89 110.379 18.9C110.379 19.91 110.149 20.82 109.689 21.63C109.229 22.44 108.589 23.1 107.769 23.61C106.949 24.12 106.029 24.37 105.009 24.37C103.989 24.37 103.069 24.12 102.249 23.61C101.429 23.1 100.789 22.44 100.329 21.63C99.8687 20.82 99.6387 19.91 99.6387 18.9ZM102.149 18.9C102.149 19.6 102.329 20.21 102.689 20.73C103.049 21.25 103.499 21.51 104.039 21.51C104.579 21.51 105.029 21.25 105.389 20.73C105.749 20.21 105.929 19.6 105.929 18.9C105.929 18.2 105.749 17.59 105.389 17.07C105.029 16.55 104.579 16.29 104.039 16.29C103.499 16.29 103.049 16.55 102.689 17.07C102.329 17.59 102.149 18.2 102.149 18.9Z" fill="#263238"/>
<path d="M121.731 28.24C120.871 28.24 120.131 28.05 119.511 27.67C118.891 27.29 118.431 26.78 118.131 26.14L120.441 25.21C120.621 25.6 120.891 25.88 121.251 26.05C121.611 26.22 121.991 26.3 122.391 26.3C122.991 26.3 123.411 26.13 123.651 25.79C123.891 25.45 124.011 25.01 124.011 24.47V23.95H123.951C123.591 24.41 123.111 24.76 122.511 25C121.911 25.24 121.271 25.36 120.591 25.36C119.631 25.36 118.781 25.13 118.041 24.67C117.301 24.21 116.741 23.59 116.361 22.81C115.981 22.03 115.791 21.12 115.791 20.08C115.791 19.04 115.981 18.13 116.361 17.35C116.741 16.57 117.301 15.95 118.041 15.49C118.781 15.03 119.631 14.8 120.591 14.8C121.271 14.8 121.911 14.92 122.511 15.16C123.111 15.4 123.591 15.75 123.951 16.21H124.011V15.02H126.241V24.34C126.241 25.5 125.951 26.43 125.371 27.13C124.791 27.83 123.971 28.24 122.911 28.24H121.731ZM122.091 23.19C122.691 23.19 123.201 23.01 123.621 22.65C124.041 22.29 124.251 21.8 124.251 21.18V18.8C123.771 18.25 123.181 17.91 122.481 17.78C121.781 17.65 121.161 17.58 120.621 17.58C120.021 17.58 119.521 17.76 119.121 18.12C118.721 18.48 118.521 19.1 118.521 19.98C118.521 20.86 118.721 21.48 119.121 21.84C119.521 22.2 120.021 22.38 120.621 22.38C121.131 22.38 121.641 22.65 122.091 23.19Z" fill="#263238"/>
<path d="M136.634 28H134.124V11.32H136.634V28Z" fill="#263238"/>
<path d="M141.678 28V11.32H144.188V25.73H153.098V28H141.678Z" fill="#263238"/>
</svg>
